<?xml version="1.0" ?><svg viewBox="0 0 32 32" xmlns="http://www.w3.org/2000/svg"><title/><g data-name="Layer 4" id="Layer_4"><path d="M16.29,26.74a9.58,9.58,0,0,1-3.14-.52l-1.52-.52a9.24,9.24,0,0,0-2.1-.45,8.75,8.75,0,0,0-3.26.31l-4,1.14A1,1,0,0,1,1,26a1,1,0,0,1,.69-1.23l4-1.15a11,11,0,0,1,4-.37,10.61,10.61,0,0,1,2.57.55l1.52.52a7.7,7.7,0,0,0,5.31-.12L19.7,24a9.69,9.69,0,0,1,6.61-.18l1.66.55A1.27,1.27,0,0,0,29.29,24a1,1,0,0,1,1.42,1.42,3.31,3.31,0,0,1-3.37.79l-1.66-.56a7.7,7.7,0,0,0-5.25.15l-.58.23A9.54,9.54,0,0,1,16.29,26.74Z"/><path d="M22.66,25.21a1,1,0,0,1-1-.79A26.83,26.83,0,0,1,21.08,19L18.8,17.26a1,1,0,0,1-.39-.89,1,1,0,0,1,.55-.8l2.48-1.23a28.15,28.15,0,0,1,1.83-6.48A27.91,27.91,0,0,0,13.5,14.8a18.7,18.7,0,0,0-4.6,9.44,1,1,0,0,1-1.15.83,1,1,0,0,1-.83-1.14A20.82,20.82,0,0,1,12,13.48,31.35,31.35,0,0,1,24.88,5.06a1,1,0,0,1,1.23,1.4,27.06,27.06,0,0,0-2.77,8.68,1,1,0,0,1-.55.76l-1.49.74,1.38,1a1,1,0,0,1,.4.8A24.81,24.81,0,0,0,23.64,24a1,1,0,0,1-.76,1.19A.86.86,0,0,1,22.66,25.21Z"/></g></svg>